<?xml version="1.0" encoding="UTF-8"?>
<svg id="katman_1" data-name="katman 1" xmlns="http://www.w3.org/2000/svg" viewBox="0 0 420 485.863">
  <defs>
    <style>
      .cls-1 {
        fill: red;
        fill-rule: evenodd;
      }
    </style>
  </defs>
  <path class="cls-1" d="m125.207.571c-21.403,40.117-47.115,74.848-76.649,104.802,23.729,2.792,43.822,8.513,58.403,18.674-8.122,27.751-31.29,59.552-65.835,94.417C6.748,169.368-11.284,114.666,7.686,69.265,26.314,24.682,66.344-4.043,125.207.571"/>
  <path class="cls-1" d="m109.057,118.998c-9.213-6.341-19.528-10.617-30.774-13.148,9.579-21.071,21.689-42.338,37.347-63.929,16.926-23.339,34.569-35.003,51.448-26.677,22.053,10.878,18.904,37.251,8.956,68.979-13.218,42.157-26.094,84.994-39.539,114.997-16.407,36.612-42.576,56.531-59.738,56.212-11.869-.22-20.708-13.23-24.581-40.587,26.364-27.301,46.268-53.143,56.879-76.887,2.925,9.589,9.17,11.087,15.625,5.907,9.489-7.616,15.89-19.652,18.388-38.11,3.568-26.365-8.481-28.779-18.102-18.864-8.368,8.623-12.927,19.897-15.91,32.107"/>
  <path class="cls-1" d="m142.973,320.028l-33.728-27.725c31.08-81.191,61.091-161.564,79.745-235.138,1.15-4.535,1.499-9.303.953-14.387l4.668-4.383c5.781,7.39,11.242,15.54,16.006,25.343,12.449-22.827,27.524-42.671,51.163-52.782.295,21.453-12.801,47.383-21.532,69.36l-38.872,97.847C242.901,119.803,283.898,60.648,323.899,0c18.023,2.648,35.617,8.304,52.115,21.627-84.319,99.467-165.002,198.934-233.041,298.4"/>
  <path class="cls-1" d="m153.213,327.174l51.734,33.537c5.335,3.458,10.201.87,16.768-3.144,28.975-17.711,56.613-37.929,83.556-59.452-22.853-12.481-48.506-18.425-75.172-22.008l36.014-40.301,38.682,12.1c6.66,2.083,12.426,2.032,16.673-2.858l22.008-25.343c6.295-7.249,5.483-16.19-2.572-20.294l-30.297-15.435,28.773-34.489,64.882,25.915c28.001-63.992,17.35-112.171-21.723-148.724-67.181,80.534-126.13,164.361-187.453,247.238-11.438-1.668-21.075,8.34-30.726,26.486-4.734,8.9-8.468,17.641-11.146,26.772"/>
</svg>